<svg width="1200" height="800" viewBox="0 0 1200 800" fill="none" xmlns="http://www.w3.org/2000/svg">
<path d="M663.833 151.944C622.754 110.775 556.049 110.672 514.843 151.714L165.972 499.196C124.766 540.238 124.663 606.883 165.742 648.052C206.821 689.221 273.526 689.324 314.732 648.283L663.602 300.8C704.808 259.758 704.911 193.113 663.833 151.944Z" fill="#1E607A"/>
<path d="M1013.26 151.948C972.179 110.779 905.474 110.676 864.268 151.718L515.398 499.2C474.192 540.242 474.089 606.887 515.167 648.056C556.246 689.225 622.951 689.328 664.157 648.286L1013.03 300.804C1054.23 259.762 1054.34 193.117 1013.26 151.948Z" fill="#1E607A"/>
<path d="M589.507 120.278C531.364 120.278 484.23 167.429 484.23 225.592V574.686C484.23 632.85 531.364 680 589.507 680C647.649 680 694.783 632.85 694.783 574.686V225.592C694.783 167.429 647.649 120.278 589.507 120.278Z" fill="#CD7722"/>
<path d="M939.453 120.278C881.31 120.278 834.177 167.429 834.177 225.592V574.686C834.177 632.85 881.31 680 939.453 680C997.596 680 1044.73 632.85 1044.73 574.686V225.592C1044.73 167.429 997.596 120.278 939.453 120.278Z" fill="#CD7722"/>
<path d="M854.647 225.572C854.647 178.718 892.616 140.736 939.453 140.736C986.29 140.736 1024.26 178.718 1024.26 225.572C1024.26 272.426 986.29 310.408 939.453 310.408C892.616 310.408 854.647 272.426 854.647 225.572Z" fill="#1E607A"/>
</svg>
